<svg width="284" height="64" viewBox="0 0 284 64" fill="none" xmlns="http://www.w3.org/2000/svg">
    <g clip-path="url(#clip0_744_2311)">
        <path d="M0 44.8276H5.32126V58.554H7.41115V44.8276H12.7291V42.8505H0V44.8276Z" fill="white"/>
        <path d="M27.4582 42.8505V51.822C27.4582 56.3975 25.0189 58.8198 21.0088 58.8198C16.9987 58.8198 14.5594 56.3975 14.5594 51.822V43.5682L16.7391 42.9402V51.822C16.7391 55.3209 18.3066 56.8461 21.0088 56.8461C23.711 56.8461 25.3683 55.2312 25.3683 51.822V43.5682L27.4615 42.8505H27.4582Z" fill="white"/>
        <path d="M53.4322 42.8505L48.3772 58.554H46.0244L42.2772 47.2499L41.8412 45.9939L41.4918 47.2499L37.6581 58.554H35.3918L30.2469 42.8505H32.5132L36.6098 55.5934L40.7963 42.8505H42.9727L47.1592 55.6831L51.3423 42.8505H53.4322Z" fill="white"/>
        <path d="M62.3276 42.8572L59.8916 43.5716H59.8017L53.1693 58.5507H55.4389L57.0962 54.6032H65.1962L66.8535 58.5507H69.1231L62.3243 42.8605L62.3276 42.8572ZM57.8749 52.8155L60.0547 47.7849L61.1895 45.0967L62.3243 47.6951L64.504 52.8155H57.8716H57.8749Z" fill="white"/>
        <path d="M73.5692 42.8505V58.554H71.3894V43.4785L73.5692 42.8505Z" fill="white"/>
        <path d="M92.7476 58.7268C91.9556 59.6306 91.0005 60.0758 89.9556 60.0758C89.0005 60.0758 88.042 59.6305 86.9971 58.4576C90.5679 57.6535 93.0039 54.5999 93.0039 50.6491C93.0039 45.9872 89.5229 42.5747 84.9039 42.5747C80.2848 42.5747 76.7905 45.9872 76.7905 50.6491C76.7905 55.0551 80.0186 58.4576 84.3814 58.6337C86.5512 60.8866 88.042 61.7804 89.9556 61.7804C91.523 61.7804 92.8242 61.1557 93.7959 59.8964L92.751 58.7234L92.7476 58.7268ZM78.9703 50.7421C78.9703 47.2532 81.4961 44.7312 84.9005 44.7312C88.3049 44.7312 90.8208 47.3429 90.8208 50.7421C90.8208 54.1413 88.295 56.753 84.9005 56.753C81.5061 56.753 78.9703 54.1546 78.9703 50.7421Z" fill="white"/>
        <path d="M124.645 44.6481C126.303 44.6481 127.783 45.2761 128.915 46.5322L130.309 45.0967C128.915 43.4818 126.822 42.6744 124.469 42.6744C119.85 42.6744 116.362 46.0836 116.362 50.7488C116.362 55.4139 119.85 58.8231 124.469 58.8231C126.822 58.8231 128.915 57.926 130.309 56.3111L128.915 54.8756C127.694 56.1317 126.299 56.7597 124.645 56.7597C121.158 56.7597 118.632 54.1579 118.632 50.7488C118.632 47.3396 121.247 44.6481 124.645 44.6481Z" fill="white"/>
        <path d="M155.331 42.8572H148.875V58.5473H155.331C160.203 58.5473 163.611 55.3242 163.611 50.6524C163.611 45.9806 160.293 42.8572 155.331 42.8572ZM155.242 56.5736H151.058V44.7279H155.152C158.902 44.7279 161.338 47.1602 161.338 50.6491C161.428 54.241 158.992 56.5703 155.242 56.5703" fill="white"/>
        <path d="M169.009 51.5562H176.68V49.5825H169.009V44.8276H177.638V42.8505H166.829V58.554H177.901V56.5802H169.009V51.5562Z" fill="white"/>
        <path d="M195.855 42.8505L189.578 53.8888L183.129 42.8505H181.385V58.554H183.478V47.1602L188.969 56.67H190.014L195.505 47.0705V58.554H197.599V42.8505H195.855Z" fill="white"/>
        <path d="M207.013 51.1076L202.045 42.8505H199.778L205.792 53.0814V58.554H207.972V53.1711L214.072 42.8505H211.892L207.013 51.1076Z" fill="white"/>
        <path d="M108.785 42.8572L106.335 43.5716H106.259L99.6263 58.5507H101.896L103.553 54.6032H111.653L113.311 58.5507H115.58L108.781 42.8605L108.785 42.8572ZM104.422 52.8155L106.602 47.7849L107.736 45.0967L108.871 47.6951L111.041 52.8155H104.422Z" fill="white"/>
        <path d="M139.807 42.8572L137.371 43.5716H137.281L130.662 58.5507H132.932L134.576 54.6032H142.689L144.346 58.5507H146.602L139.804 42.8605L139.807 42.8572ZM135.457 52.8155L137.637 47.7849L138.759 45.0967L139.893 47.6951L142.073 52.8155H135.454H135.457Z" fill="white"/>
        <path d="M207.709 29.1241C207.795 29.2138 205.965 31.0979 205.965 31.0979H172.407V11.9852L174.673 11.3572V29.0344H205.093C205.006 28.855 205.007 28.7653 204.92 28.5858C204.484 27.7784 203.962 26.971 203.263 26.1635C202.041 24.9075 200.387 24.2795 198.644 24.2795H181.472L180.427 22.2161C180.427 22.1264 180.863 21.8572 180.949 21.7675C181.122 21.5881 181.299 21.4984 181.472 21.3189C181.821 21.0498 182.167 20.7806 182.517 20.5115C183.216 19.9732 183.911 19.4349 184.61 18.8966C186.004 17.9098 187.485 17.1023 189.143 16.4743C189.316 16.3846 189.492 16.3846 189.579 16.2949C190.973 15.8463 192.54 15.6669 193.938 16.1155C194.025 16.1155 194.287 16.2052 194.374 16.2052L193.153 18.1789C189.579 17.3715 183.302 22.0366 183.302 22.0366H199.166C200.474 22.0366 201.782 22.3955 202.913 23.1132C204.048 23.8309 205.266 24.7281 206.051 25.8047C206.109 25.8645 206.167 25.9243 206.225 25.9841C206.747 26.971 207.269 28.0475 207.705 29.1241" fill="white"/>
        <path d="M36.6997 34.1482C36.3503 34.507 36.2638 34.8659 36.2638 35.3145C36.2638 35.763 36.4368 36.1219 36.6997 36.4808C37.0492 36.7499 37.3953 36.9293 37.8312 36.9293C38.2672 36.9293 38.6166 36.7499 38.9627 36.4808C39.2256 36.2116 39.3986 35.763 39.3986 35.3145C39.3986 34.8659 39.2256 34.4173 38.9627 34.1482C38.6998 33.7893 38.2638 33.6996 37.8312 33.6996C37.3087 33.6099 36.9593 33.7893 36.6997 34.1482Z" fill="white"/>
        <path d="M35.129 35.3145C35.129 34.8659 34.9559 34.4173 34.693 34.1482C34.4335 33.7893 33.9942 33.6996 33.5616 33.6996C33.1289 33.6996 32.7762 33.879 32.4301 34.1482C32.0807 34.507 31.9941 34.8659 31.9941 35.3145C31.9941 35.763 32.1672 36.1219 32.4301 36.4807C32.7795 36.7499 33.1289 36.9293 33.5616 36.9293C33.9942 36.9293 34.3469 36.7499 34.693 36.4807C34.9559 36.1219 35.129 35.763 35.129 35.3145Z" fill="white"/>
        <path d="M37.1324 19.0794V28.9513H19.1852C19.1852 26.9776 19.0953 25.18 18.9156 23.4754C18.7359 21.7675 18.5695 20.239 18.3033 18.8003C16.4796 19.0794 14.9987 19.4382 13.6842 19.9732C12.4596 20.5082 11.4146 21.0564 10.546 21.6811C9.76732 22.3058 9.15499 23.0302 8.79891 23.8343C8.45614 24.5487 8.27643 25.3627 8.27643 26.1635C8.27643 27.8714 8.72237 29.1308 9.59094 29.9349C10.4595 30.7357 11.7707 31.1078 13.5078 31.1078H16.8257C16.7359 32.1778 16.4829 33.0816 16.047 33.7062C15.6011 34.3309 15.0786 34.7762 14.4762 35.0553C13.8639 35.3244 13.3414 35.5902 12.7291 35.5902C12.2066 35.68 11.7707 35.68 11.5045 35.68H7.84381C6.54261 35.68 5.49766 35.4108 4.79549 34.9656C4.01677 34.507 3.49429 33.8823 3.04836 33.1713C2.61573 32.4469 2.35949 31.7325 2.26964 30.9284C2.17978 30.1143 2.08993 29.3999 2.08993 28.7619C2.08993 27.7817 2.26964 26.6985 2.61241 25.7183C2.96849 24.6351 3.31459 23.7445 3.83706 22.8408H2.17978C1.92354 23.2096 1.74716 23.5651 1.4776 24.0137C1.22136 24.4589 0.955129 24.9042 0.788736 25.5422C0.519179 26.0771 0.356114 26.7915 0.266261 27.5159C0.0865564 28.2303 -0.0032959 29.2238 -0.0032959 30.204C-0.0032959 31.4634 0.266261 32.623 0.698884 33.5268C1.13151 34.507 1.74383 35.2347 2.44601 35.8561C3.13488 36.4808 3.92691 36.9393 4.88201 37.2948C5.75058 37.564 6.70568 37.7401 7.58756 37.7401H12.4596C13.8639 37.7401 14.9987 37.4709 15.864 36.936C16.7325 36.3877 17.4347 35.763 17.9572 35.052C18.4797 34.3276 18.8258 33.6132 19.0021 32.7991C19.1818 31.995 19.2584 31.3736 19.3482 30.9251H37.9211C37.9211 30.9251 39.2223 29.4863 39.5683 29.1308V18.2653L37.1324 19.0794ZM16.646 28.9513H13.0752C12.5527 28.9513 12.2066 28.8483 11.8639 28.6722C11.5943 28.4928 11.3414 28.227 11.0718 27.9578C10.8921 27.6887 10.7257 27.3331 10.6392 27.0673C10.5494 26.6985 10.5494 26.4293 10.5494 26.1635C10.5494 25.0936 11.0718 24.1898 11.9404 23.3857C12.8223 22.6613 14.2999 22.0366 16.3032 21.5017C16.3931 21.9469 16.3931 22.4819 16.4829 23.0301C16.5728 23.5651 16.5728 24.1001 16.5728 24.7248C16.5728 25.273 16.6493 25.808 16.6493 26.343V28.9547L16.646 28.9513Z" fill="white"/>
        <path d="M92.8241 28.9514C92.7476 27.4229 92.5679 25.6286 92.5679 25.2697C92.3882 23.9207 92.1353 22.3922 91.1768 21.3223C90.2084 20.1493 88.3848 19.7938 86.9039 19.6144C82.8106 19.1691 79.1466 20.8637 75.9219 23.4721C75.1299 24.0968 74.3545 24.8079 73.5624 25.5355V11.1812C72.8736 11.447 72.0815 11.7161 71.3028 11.8955V28.8484H52.5636C52.5636 26.9776 52.4738 25.0903 52.2974 23.4721C52.1177 21.7642 51.9513 20.2357 51.6851 18.797C49.8614 19.0761 48.3805 19.4349 47.066 19.9699C45.8413 20.5049 44.7964 21.0531 43.9278 21.6778C43.1491 22.3025 42.5368 23.0269 42.1807 23.831C41.8379 24.5454 41.6582 25.3594 41.6582 26.1602C41.6582 27.8681 42.1041 29.1275 42.9727 29.9316C43.8413 30.7324 45.1558 31.1045 46.8896 31.1045H50.2042C50.1143 31.6395 50.0245 32.1745 49.8581 32.6197C49.6784 33.0782 49.4254 33.4338 49.1559 33.7926C48.8996 34.1482 48.6334 34.4173 48.2873 34.5968C47.9312 34.8659 47.675 35.0553 47.3289 35.145C46.6267 35.5006 45.7615 35.68 44.8796 35.7697L45.4919 37.8331C46.8829 37.7434 48.0177 37.3879 48.8963 36.8396C49.7649 36.3047 50.4637 35.68 50.9895 34.9656C51.512 34.2412 51.8581 33.5268 52.111 32.7991C52.3806 32.0847 52.4671 31.4601 52.4671 31.0148H91.0803C91.0803 31.0148 92.3815 29.576 92.7376 29.2172C92.904 29.1275 92.8141 29.0378 92.8141 28.948M50.1077 28.948H46.5369C46.0144 28.948 45.6683 28.845 45.3122 28.6689C44.9661 28.4895 44.7132 28.2237 44.5335 27.9545C44.3538 27.6854 44.1874 27.3298 44.1009 27.064C44.011 26.6952 44.011 26.4261 44.011 26.1602C44.011 25.0903 44.5335 24.1865 45.402 23.3824C46.2839 22.658 47.7615 22.0333 49.7649 21.4984C49.8547 21.9436 49.8547 22.4786 49.9446 23.0269C50.0211 23.5618 50.0211 24.0968 50.0211 24.7215C50.0211 25.2697 50.111 25.8047 50.111 26.3397V28.9514L50.1077 28.948ZM90.6477 28.948H73.6423C73.822 28.948 74.1648 28.3998 74.2546 28.2237C74.5109 27.8681 74.867 27.599 75.1232 27.2435C78.095 24.0968 81.6691 21.4984 86.1052 21.6778C87.1501 21.7675 88.1984 22.0333 88.9871 22.658C89.676 23.2063 90.1219 24.0071 90.2883 24.9009C90.6444 26.1503 90.5545 27.6522 90.6444 28.9015V28.9514L90.6477 28.948Z" fill="white"/>
        <path d="M152.193 19.0794V28.9513H143.558V28.4928C143.558 28.227 143.558 27.7784 143.468 27.157C143.378 26.5191 143.301 25.8944 143.122 25.273C142.942 24.5487 142.775 23.8343 142.509 23.1199C142.253 22.3922 141.987 21.6811 141.731 21.1461C141.374 20.5082 141.028 20.0629 140.686 19.7074C140.24 19.3518 139.894 19.0827 139.371 19.0827C139.028 19.0827 138.592 19.3485 138.07 19.8835C137.547 20.4184 136.935 21.1428 136.233 22.0366C135.621 22.9404 134.932 24.0104 134.23 25.1833C133.527 26.343 132.928 27.692 132.316 29.0411H125.427V18.4447L123.158 19.0827V28.9547H110.875V18.6241C108.948 18.8036 107.214 19.1724 105.81 19.6177C104.418 20.0629 103.284 20.5979 102.329 21.2359C101.46 21.8605 100.761 22.5716 100.325 23.2993C99.8926 24.0137 99.7129 24.8145 99.7129 25.6286C99.7129 27.3365 100.146 28.6722 101.027 29.576C101.896 30.5562 103.287 31.0148 105.121 31.0148C105.899 31.0148 106.602 30.9251 107.034 30.8254C107.467 30.646 107.903 30.5562 108.079 30.3801C108.345 30.2007 108.512 29.9349 108.691 29.6657C108.781 29.8452 108.871 30.0213 108.948 30.111C109.038 30.2904 109.214 30.3801 109.304 30.5562C109.47 30.7357 109.65 30.9251 109.826 31.0148H131.524C132.316 31.0148 133.005 30.9251 133.451 30.646C133.883 30.3801 134.319 29.9316 134.662 29.1308C136.066 29.8452 137.278 30.4698 138.233 30.9284C139.201 31.3736 139.98 31.7325 140.592 31.9086C140.849 32.088 141.115 32.088 141.371 32.088C141.637 32.088 141.894 31.9983 142.073 31.9086C142.253 31.8189 142.506 31.4634 142.775 30.9284H152.712C152.712 30.9284 154.014 29.4896 154.356 29.1308V18.2653L152.187 19.0794H152.193ZM108.785 28.9513H105.034C104.688 28.9513 104.422 28.9513 104.079 28.8483C103.723 28.7586 103.467 28.5792 103.2 28.4031C102.944 28.1339 102.768 27.8681 102.601 27.4229C102.422 26.9776 102.335 26.4294 102.335 25.715C102.335 25.2697 102.425 24.8112 102.681 24.3659C102.948 23.9207 103.294 23.5618 103.816 23.1165C104.339 22.7477 104.951 22.3889 105.82 22.0333C106.612 21.6778 107.657 21.4086 108.791 21.2325V28.9513H108.785ZM139.987 29.1308C139.464 28.9513 138.942 28.6722 138.416 28.4928C137.893 28.227 137.371 27.9578 136.849 27.692C136.326 27.4229 135.89 27.0673 135.457 26.7882C135.547 26.6088 135.714 26.2532 136.07 25.7183C136.326 25.1833 136.669 24.6351 137.028 24.1001C137.374 23.5651 137.717 23.1199 138.163 22.6613C138.509 22.2161 138.852 22.0366 139.121 22.0366C139.391 22.0366 139.644 22.3058 139.9 22.751C140.166 23.2096 140.333 23.8343 140.513 24.5453C140.692 25.2697 140.859 26.0738 140.945 26.9776C141.035 27.8681 141.211 28.7619 141.211 29.6657C140.945 29.4863 140.509 29.3102 139.987 29.1308Z" fill="white"/>
        <path d="M158.636 31.0081C158.899 31.0979 159.245 31.0979 159.594 31.0979H169.445V28.9447C169.445 27.6887 169.182 26.4327 168.746 25.1767C168.31 23.9207 167.701 22.8441 167.002 21.7675C166.303 20.6909 165.521 19.8835 164.649 19.0761C163.778 18.3583 162.906 17.82 162.034 17.5509L161.335 20.0629C162.47 20.6012 163.428 21.2292 164.124 21.9469C164.819 22.7544 165.431 23.4721 165.781 24.3692C166.217 25.1767 166.476 25.9841 166.566 26.7915C166.739 27.599 166.739 28.227 166.739 28.855H159.767C159.418 28.855 159.072 28.855 158.809 28.7653C158.546 28.7653 158.287 28.6756 158.024 28.5858C157.761 28.4961 157.501 28.4064 157.325 28.3167L157.152 30.4699C157.325 30.5596 157.588 30.6493 157.761 30.739C158.11 30.9184 158.37 30.9184 158.633 31.0081" fill="white"/>
        <path d="M214.072 11.2675L212.155 11.8058C212.068 11.8058 211.892 11.7161 211.719 11.7161C211.546 11.6264 211.456 11.5367 211.283 11.447C211.11 11.3572 211.02 11.1778 210.933 10.9984C210.847 10.819 210.76 10.6395 210.76 10.4601C210.76 10.191 210.847 10.0115 211.023 9.83209C211.196 9.65266 211.373 9.56295 211.632 9.47323C211.895 9.38352 212.068 9.38352 212.331 9.47323C212.594 9.47323 212.767 9.65266 213.03 9.74238L213.902 8.93494C213.729 8.6658 213.466 8.48637 213.116 8.39665C212.854 8.30694 212.507 8.21722 212.158 8.30694C211.809 8.30694 211.549 8.39665 211.2 8.57608C210.85 8.75551 210.591 8.93494 210.328 9.11437C210.065 9.38352 209.892 9.65266 209.719 9.92181C209.546 10.2807 209.456 10.6395 209.456 10.9984C209.456 11.2675 209.542 11.5367 209.719 11.8955C209.892 12.2544 210.155 12.4338 210.414 12.5235L208.933 12.9721V14.0487L213.815 12.5235V11.2675H214.078H214.072Z" fill="white"/>
        <path d="M212.94 31.0979V14.1384L210.674 14.7664V31.0979H212.94Z" fill="white"/>
        <path d="M125.427 34.1482C125.078 34.507 124.991 34.8659 124.991 35.3145C124.991 35.763 125.164 36.1219 125.427 36.4808C125.777 36.7499 126.123 36.9293 126.559 36.9293C126.995 36.9293 127.344 36.7499 127.69 36.4808C127.95 36.2116 128.126 35.763 128.126 35.3145C128.126 34.8659 127.953 34.4173 127.69 34.1482C127.427 33.7893 126.991 33.6996 126.559 33.6996C126.123 33.6099 125.773 33.7893 125.427 34.1482Z" fill="white"/>
        <path d="M123.946 35.3145C123.946 34.8659 123.773 34.4173 123.51 34.1482C123.251 33.7893 122.812 33.6996 122.379 33.6996C121.946 33.6996 121.594 33.879 121.247 34.1482C120.898 34.507 120.812 34.8659 120.812 35.3145C120.812 35.763 120.985 36.1219 121.247 36.4807C121.597 36.7499 121.946 36.9293 122.379 36.9293C122.812 36.9293 123.164 36.7499 123.51 36.4807C123.773 36.1219 123.946 35.763 123.946 35.3145Z" fill="white"/>
        <path d="M15.7807 13.6001C15.4313 13.959 15.3448 14.3178 15.3448 14.7664C15.3448 15.215 15.5178 15.5739 15.7807 15.9327C16.1302 16.2019 16.4763 16.3813 16.9122 16.3813C17.3482 16.3813 17.6976 16.2019 18.0437 15.9327C18.3066 15.6636 18.4796 15.215 18.4796 14.7664C18.4796 14.3178 18.3066 13.8693 18.0437 13.6001C17.7808 13.2413 17.3448 13.1516 16.9122 13.1516C16.4796 13.1516 16.0403 13.331 15.7807 13.6001Z" fill="white"/>
        <path d="M14.21 14.8561C14.21 14.4076 14.0369 13.959 13.774 13.6898C13.5145 13.331 13.0752 13.2413 12.6426 13.2413C12.2099 13.2413 11.8572 13.4207 11.5111 13.6898C11.1617 14.0487 11.0751 14.4076 11.0751 14.8561C11.0751 15.3047 11.2482 15.6636 11.5111 16.0224C11.8605 16.2916 12.2099 16.471 12.6426 16.471C13.0752 16.471 13.4279 16.2916 13.774 16.0224C14.1235 15.6636 14.21 15.3047 14.21 14.8561Z" fill="white"/>
        <path d="M108.345 13.6001C107.996 13.959 107.909 14.3178 107.909 14.7664C107.909 15.215 108.082 15.5739 108.345 15.9327C108.695 16.2019 109.041 16.3813 109.477 16.3813C109.913 16.3813 110.262 16.2019 110.608 15.9327C110.868 15.6636 111.044 15.215 111.044 14.7664C111.044 14.3178 110.871 13.8693 110.608 13.6001C110.345 13.2413 109.909 13.1516 109.477 13.1516C109.044 13.1516 108.605 13.331 108.345 13.6001Z" fill="white"/>
        <path d="M106.775 14.8561C106.775 14.4076 106.601 13.959 106.339 13.6898C106.079 13.331 105.64 13.2413 105.207 13.2413C104.774 13.2413 104.422 13.4207 104.076 13.6898C103.726 14.0487 103.64 14.4076 103.64 14.8561C103.64 15.3047 103.813 15.6636 104.076 16.0224C104.425 16.2916 104.774 16.471 105.207 16.471C105.64 16.471 105.992 16.2916 106.339 16.0224C106.688 15.6636 106.775 15.3047 106.775 14.8561Z" fill="white"/>
        <path d="M151.751 34.1482C151.401 34.507 151.315 34.8659 151.315 35.3145C151.315 35.763 151.488 36.1219 151.751 36.4808C152.1 36.7499 152.446 36.9293 152.882 36.9293C153.318 36.9293 153.667 36.7499 154.014 36.4808C154.273 36.2116 154.45 35.763 154.45 35.3145C154.45 34.8659 154.276 34.4173 154.014 34.1482C153.751 33.7893 153.315 33.6996 152.882 33.6996C152.446 33.6099 152.01 33.7893 151.751 34.1482Z" fill="white"/>
        <path d="M150.183 35.3145C150.183 34.8659 150.01 34.4173 149.747 34.1482C149.488 33.7893 149.048 33.6996 148.616 33.6996C148.183 33.6996 147.83 33.879 147.484 34.1482C147.135 34.507 147.048 34.8659 147.048 35.3145C147.048 35.763 147.221 36.1219 147.484 36.4807C147.834 36.7499 148.183 36.9293 148.616 36.9293C149.048 36.9293 149.401 36.7499 149.747 36.4807C150.097 36.1219 150.183 35.763 150.183 35.3145Z" fill="white"/>
        <path d="M283.924 56.2579C282.812 34.4539 272.506 14.278 255.657 0.930377L254.495 0L253.347 0.930377C236.495 14.3178 226.188 34.4539 225.067 56.2579L225.004 57.6203L226.228 58.1419C235.197 62.0396 244.698 64 254.495 64C264.292 64 273.807 62.0396 282.775 58.1419L284 57.6203L283.924 56.2579ZM254.469 60.1057C245.64 60.1057 237.031 58.3978 228.931 55.0617C230.295 35.4474 239.556 17.325 254.469 4.931C269.381 17.325 278.629 35.4474 279.993 55.0617C271.893 58.3978 263.284 60.1057 254.469 60.1057Z" fill="white"/>
        <path d="M254.495 10.8655C252.775 12.4571 251.154 14.165 249.597 15.946L250.425 16.7235L251.433 17.7669L252.442 18.7604L253.45 19.8037L254.432 20.8737L255.4 21.917L256.332 23.0268L257.277 24.1333L258.169 25.2531L259.038 26.3995L259.906 27.5458L260.735 28.7055L261.564 29.8884L262.356 31.1112L263.148 32.3339L263.9 33.5567L264.665 34.8194L265.341 36.0787L266.03 37.3779L266.718 38.6406L267.331 39.9398L267.943 41.2656L268.519 42.5648L269.091 43.9038L269.627 45.2396L270.176 46.5787L270.675 47.941L271.031 48.9977L267.843 47.2266L267.73 46.9076L266.861 44.7943L265.916 42.7176L264.948 40.6409L263.903 38.604L262.795 36.6037L261.633 34.63L260.409 32.7061L259.121 30.8088L257.783 28.9613L256.419 27.1404L254.978 25.3561L253.497 23.6615L251.993 21.9935L250.399 20.352L248.778 18.7604L247.846 17.9064C246.302 19.8436 244.888 21.8041 243.56 23.8808L244.032 24.2496L245.833 25.8412L247.593 27.5093L249.327 29.1773L251.011 30.8852L252.668 32.6695L254.262 34.4904L255.806 36.3379L257.324 38.2352L258.765 40.1591L260.169 42.1195L261.354 43.864C260.908 43.6978 260.449 43.545 260.003 43.4054L258.688 41.8271L256.928 39.7902L255.091 37.7899L253.214 35.8162L251.3 33.9322L249.36 32.0714L247.37 30.2638L245.317 28.4795L243.237 26.7716L242.215 25.9941C241.207 27.702 240.275 29.483 239.447 31.2939L241.18 32.4768L243.373 34.0817L245.39 35.6368L247.367 37.2284L249.317 38.8964L251.217 40.6043L253.091 42.3887L253.294 42.5913C252.236 42.6412 251.177 42.794 250.129 43.0366L249.926 42.8339L248.089 41.1659L246.175 39.5344L244.235 37.9295L242.245 36.4143L240.229 34.9357L238.508 33.7129C237.896 35.1517 237.347 36.6037 236.851 38.0425L236.914 38.079L237.819 38.5243L238.751 39.0094L239.656 39.4945L240.561 40.0029L241.453 40.5246L242.358 41.0861L243.227 41.6477L244.082 42.1959L244.951 42.794L245.819 43.3788L246.648 43.9769L246.801 44.0899C246.175 44.3591 245.563 44.6515 244.964 44.9804L244.478 44.7113L242.898 43.8208L241.277 42.9668L239.656 42.1527L238.036 41.3752L236.378 40.5977L236.059 40.4448C235.586 42.0099 235.19 43.6048 234.834 45.1964L235.982 45.6417L237.743 46.3428L239.516 47.0937L240.691 47.6021L238.115 49.2203L237.21 48.7883L236.062 48.3165L234.901 47.8314L234.328 47.6021C234.072 49.0409 233.832 50.5328 233.653 52.0081C233.653 52.0081 233.639 52.0081 233.639 52.0214C236.498 53.0415 239.407 53.8157 242.365 54.3905C245.606 55.0385 249.47 55.5867 253.5 55.6C257.966 55.6399 262.019 55.1681 265.377 54.57C265.494 54.5567 265.607 54.5301 265.723 54.5201C265.916 54.4836 266.093 54.4437 266.286 54.4071C267.128 54.2543 267.97 54.0749 268.812 53.8722C270.802 53.4003 272.396 52.9285 273.507 52.573C274.12 52.3836 274.719 52.1776 275.318 51.9882C273.417 36.1551 266.03 21.5848 254.498 10.8622M258.083 44.7279C259.141 44.0035 259.257 43.8474 259.217 44.3325L258.425 45.7447C258.132 46.4458 257.048 45.4656 258.083 44.7246M249.663 46.6617C250.149 45.9872 250.685 45.3758 251.284 44.801C251.374 44.7246 251.666 44.3923 251.78 44.379C251.793 44.379 251.78 44.4288 251.743 44.4687C251.716 44.5053 251.693 44.5451 251.693 44.5584C251.437 44.9904 249.676 48.1504 249.653 48.7219C249.626 49.3333 251.018 48.9379 251.387 48.6587C251.603 48.4926 251.59 48.1636 251.603 47.8546C251.617 47.3197 251.324 46.8478 251.793 46.4292C252.112 46.15 252.761 45.8809 253.144 46.1368C254.063 46.7349 252.698 48.1504 252.289 48.6322C251.78 49.2037 251.191 49.7154 250.555 50.0975C250.172 50.3268 249.151 51.091 248.718 50.6956C248.655 50.6325 248.628 50.5295 248.605 50.453C248.249 49.001 248.861 47.7915 249.663 46.6584M250.159 53.9187C249.74 54.4038 248.042 54.3772 248.042 54.3772C248.042 54.3772 249.433 53.1943 250.199 52.6062C250.978 52.0214 252.379 50.2636 252.941 49.6257C253.503 49.001 254.459 47.7549 254.738 47.3961C255.018 47.0405 255.886 46.0969 255.886 46.0969C255.886 46.0969 256.395 47.0405 255.121 48.6189C254.598 49.2701 253.284 50.4929 252.622 51.2571C251.959 52.0214 250.582 53.4103 250.159 53.9187ZM261.514 46.0736C261.397 46.1002 261.257 46.1002 261.158 46.15C260.968 46.2265 261.018 46.3029 261.031 46.5189C261.031 46.9276 261.004 47.3462 260.928 47.7549C260.891 47.9709 260.838 48.2002 260.712 48.3796C260.445 48.7485 259.959 48.8249 259.64 49.1439C259.307 49.4628 258.991 49.8317 258.708 50.1872C258.515 50.4165 258.339 51.1807 258.286 51.4864C258.083 52.5696 255.543 53.51 254.292 53.51C252.482 53.51 253.846 52.4268 254.139 52.2108C254.166 52.1842 254.202 52.1709 254.242 52.1709L256.692 51.9151C257.75 51.7988 258.083 50.3367 257.623 49.9413C257.164 49.5459 256.731 49.4197 256.678 48.6155C256.642 48.2467 257.201 46.7681 258.489 47.4559C259.204 47.838 259.93 47.7749 259.93 47.7749L259.943 47.4958L259.826 46.2231C258.998 46.376 259.214 45.7912 259.317 45.5087C259.407 45.2296 259.713 45.3061 260.452 44.9738C261.114 44.6681 261.371 44.5285 261.51 44.5285L261.677 45.8277C261.677 45.9307 261.613 46.0304 261.51 46.0703" fill="white"/>
    </g>
    <defs>
        <clipPath id="clip0_744_2311">
            <rect width="284" height="64" fill="white"/>
        </clipPath>
    </defs>
</svg>
